<svg xmlns="http://www.w3.org/2000/svg" viewBox="0 0 1560 1020" font-family="DejaVu Sans, Arial, Helvetica, sans-serif"><rect x="0" y="0" width="1560" height="1020" fill="#ffffff"/><defs><marker id="a" viewBox="0 0 10 10" refX="8.5" refY="5" markerWidth="7.5" markerHeight="7.5" orient="auto-start-reverse"><path d="M1 1 L9 5 L1 9" fill="none" stroke="#1a1a1a" stroke-width="1.5" stroke-linecap="round" stroke-linejoin="round"/></marker><marker id="ar" viewBox="0 0 10 10" refX="8.5" refY="5" markerWidth="7.5" markerHeight="7.5" orient="auto-start-reverse"><path d="M1 1 L9 5 L1 9" fill="none" stroke="#c0392b" stroke-width="1.5" stroke-linecap="round" stroke-linejoin="round"/></marker></defs><rect x="16" y="16" width="1086" height="990" rx="4" fill="none" stroke="#1a1a1a" stroke-width="1.1" stroke-dasharray="7 5"/><text x="28" y="36" font-size="13" font-weight="bold" fill="#1a1a1a">Processor — DataPath  (RISC · hardwired-driven)</text><rect x="1116" y="16" width="428" height="990" rx="4" fill="none" stroke="#1a1a1a" stroke-width="1.1" stroke-dasharray="7 5"/><text x="1128" y="36" font-size="13" font-weight="bold" fill="#1a1a1a">Memory &amp; I/O  (Von Neumann · Port-Mapped)</text><rect x="60" y="84" width="165" height="44" rx="8" fill="#ffffff" stroke="#1a1a1a" stroke-width="1.4"/><text x="142.5" y="98.5" font-size="12.5" font-weight="bold" text-anchor="middle" dominant-baseline="middle" fill="#1a1a1a">IR</text><text x="142.5" y="113.5" font-size="10" font-weight="normal" text-anchor="middle" dominant-baseline="middle" fill="#1a1a1a">Instruction Register</text><rect x="60" y="160" width="182" height="44" rx="8" fill="#ffffff" stroke="#1a1a1a" stroke-width="1.4"/><text x="151.0" y="174.5" font-size="12.5" font-weight="bold" text-anchor="middle" dominant-baseline="middle" fill="#1a1a1a">Immediate / Offset</text><text x="151.0" y="189.5" font-size="9" font-weight="normal" text-anchor="middle" dominant-baseline="middle" fill="#1a1a1a">sign · zero · &lt;&lt;16 · addr24</text><rect x="60" y="300" width="210" height="222" rx="8" fill="#ffffff" stroke="#1a1a1a" stroke-width="1.4"/><text x="165.0" y="388.5" font-size="12.5" font-weight="bold" text-anchor="middle" dominant-baseline="middle" fill="#1a1a1a">Register File</text><text x="165.0" y="403.5" font-size="9.5" font-weight="normal" text-anchor="middle" dominant-baseline="middle" fill="#1a1a1a">r0 .. r15   (r0 = 0)</text><text x="165.0" y="418.5" font-size="9.5" font-weight="normal" text-anchor="middle" dominant-baseline="middle" fill="#1a1a1a">2 read · 1 write</text><text x="165.0" y="433.5" font-size="9.5" font-weight="normal" text-anchor="middle" dominant-baseline="middle" fill="#1a1a1a">write decoder (one-hot)</text><polygon points="376.0,360 488.0,360 461.0,406 403.0,406" fill="#ffffff" stroke="#1a1a1a" stroke-width="1.4"/><text x="432" y="376.5" font-size="10.5" font-weight="bold" text-anchor="middle" dominant-baseline="middle" fill="#1a1a1a">MUX</text><text x="432" y="389.5" font-size="10.5" font-weight="bold" text-anchor="middle" dominant-baseline="middle" fill="#1a1a1a">ALU B</text><polygon points="356.0,452 420,452 432,465 444,452 508.0,452 477.0,534 387.0,534" fill="#ffffff" stroke="#1a1a1a" stroke-width="1.4"/><text x="432" y="501.2" font-size="12.5" font-weight="bold" text-anchor="middle" dominant-baseline="middle" fill="#1a1a1a">ALU</text><rect x="592" y="520" width="112" height="40" rx="8" fill="#ffffff" stroke="#1a1a1a" stroke-width="1.4"/><text x="648.0" y="532.5" font-size="11" font-weight="bold" text-anchor="middle" dominant-baseline="middle" fill="#1a1a1a">ALU_OUT</text><text x="648.0" y="547.5" font-size="8.5" font-weight="normal" text-anchor="middle" dominant-baseline="middle" fill="#1a1a1a">eff. addr / result</text><polygon points="560,125.0 640,168.0 640,232.0 560,275.0" fill="#ffffff" stroke="#1a1a1a" stroke-width="1.4"/><text x="596.8" y="193.5" font-size="10.5" font-weight="bold" text-anchor="middle" dominant-baseline="middle" fill="#1a1a1a">MUX</text><text x="596.8" y="206.5" font-size="10.5" font-weight="bold" text-anchor="middle" dominant-baseline="middle" fill="#1a1a1a">ADDR</text><polygon points="341.0,704 523.0,704 476.0,752 388.0,752" fill="#ffffff" stroke="#1a1a1a" stroke-width="1.4"/><text x="432" y="721.5" font-size="10.5" font-weight="bold" text-anchor="middle" dominant-baseline="middle" fill="#1a1a1a">MUX</text><text x="432" y="734.5" font-size="10.5" font-weight="bold" text-anchor="middle" dominant-baseline="middle" fill="#1a1a1a">WB</text><rect x="800" y="360" width="210" height="206" rx="8" fill="#ffffff" stroke="#1a1a1a" stroke-width="1.4"/><text x="905.0" y="440.5" font-size="12.5" font-weight="bold" text-anchor="middle" dominant-baseline="middle" fill="#1a1a1a">Cache</text><text x="905.0" y="455.5" font-size="9" font-weight="normal" text-anchor="middle" dominant-baseline="middle" fill="#1a1a1a">direct-mapped, write-back</text><text x="905.0" y="470.5" font-size="9" font-weight="normal" text-anchor="middle" dominant-baseline="middle" fill="#1a1a1a">16 lines × 4 words</text><text x="905.0" y="485.5" font-size="9" font-weight="normal" text-anchor="middle" dominant-baseline="middle" fill="#1a1a1a">hit 1 / miss 41·81 cyc</text><rect x="1180" y="360" width="230" height="176" rx="8" fill="#ffffff" stroke="#1a1a1a" stroke-width="1.4"/><text x="1295.0" y="425.5" font-size="12.5" font-weight="bold" text-anchor="middle" dominant-baseline="middle" fill="#1a1a1a">Main Memory</text><text x="1295.0" y="440.5" font-size="9.5" font-weight="normal" text-anchor="middle" dominant-baseline="middle" fill="#1a1a1a">(Von Neumann)</text><text x="1295.0" y="455.5" font-size="9.5" font-weight="normal" text-anchor="middle" dominant-baseline="middle" fill="#1a1a1a">16 MiB · 1 port</text><text x="1295.0" y="470.5" font-size="9.5" font-weight="normal" text-anchor="middle" dominant-baseline="middle" fill="#1a1a1a">instr + data + vectors</text><rect x="912" y="628" width="178" height="104" rx="8" fill="#ffffff" stroke="#1a1a1a" stroke-width="1.4"/><text x="1001.0" y="657.5" font-size="12.5" font-weight="bold" text-anchor="middle" dominant-baseline="middle" fill="#1a1a1a">Port I/O</text><text x="1001.0" y="672.5" font-size="9" font-weight="normal" text-anchor="middle" dominant-baseline="middle" fill="#1a1a1a">(port-mapped)</text><text x="1001.0" y="687.5" font-size="9" font-weight="normal" text-anchor="middle" dominant-baseline="middle" fill="#1a1a1a">IN: status/data/ctrl</text><text x="1001.0" y="702.5" font-size="9" font-weight="normal" text-anchor="middle" dominant-baseline="middle" fill="#1a1a1a">OUT: status/data</text><path d="M 110,278 L 110,300" fill="none" stroke="#1a1a1a" stroke-width="1.4" stroke-dasharray="6 4" stroke-linejoin="round" marker-end="url(#a)"/><text x="110" y="274" font-size="9.5" text-anchor="middle" font-style='italic' fill="#1a1a1a">reg_we</text><path d="M 352,383 L 376,383" fill="none" stroke="#1a1a1a" stroke-width="1.4" stroke-dasharray="6 4" stroke-linejoin="round" marker-end="url(#a)"/><text x="349" y="386" font-size="9.5" text-anchor="end" font-style='italic' fill="#1a1a1a">alu_r sel</text><path d="M 332,504 L 356,504" fill="none" stroke="#1a1a1a" stroke-width="1.4" stroke-dasharray="6 4" stroke-linejoin="round" marker-end="url(#a)"/><text x="329" y="507" font-size="9.5" text-anchor="end" font-style='italic' fill="#1a1a1a">alu op</text><path d="M 724,540 L 704,540" fill="none" stroke="#1a1a1a" stroke-width="1.4" stroke-dasharray="6 4" stroke-linejoin="round" marker-end="url(#a)"/><text x="727" y="543" font-size="9.5" text-anchor="start" font-style='italic' fill="#1a1a1a">ao_latch</text><path d="M 600,116 L 600,140" fill="none" stroke="#1a1a1a" stroke-width="1.4" stroke-dasharray="6 4" stroke-linejoin="round" marker-end="url(#a)"/><text x="600" y="112" font-size="9.5" text-anchor="middle" font-style='italic' fill="#1a1a1a">addr sel</text><path d="M 319,728 L 341,728" fill="none" stroke="#1a1a1a" stroke-width="1.4" stroke-dasharray="6 4" stroke-linejoin="round" marker-end="url(#a)"/><text x="316" y="731" font-size="9.5" text-anchor="end" font-style='italic' fill="#1a1a1a">wb sel</text><path d="M 905,588 L 905,566" fill="none" stroke="#1a1a1a" stroke-width="1.4" stroke-dasharray="6 4" stroke-linejoin="round" marker-end="url(#a)"/><text x="905" y="599" font-size="9.5" text-anchor="middle" font-style='italic' fill="#1a1a1a">mem rd/wr</text><path d="M 95,64 L 95,84" fill="none" stroke="#1a1a1a" stroke-width="1.4" stroke-dasharray="6 4" stroke-linejoin="round" marker-end="url(#a)"/><text x="95" y="60" font-size="9.5" text-anchor="middle" font-style='italic' fill="#1a1a1a">ir_latch</text><path d="M 1045,608 L 1045,628" fill="none" stroke="#1a1a1a" stroke-width="1.4" stroke-dasharray="6 4" stroke-linejoin="round" marker-end="url(#a)"/><text x="1045" y="604" font-size="9.5" text-anchor="middle" font-style='italic' fill="#1a1a1a">io rd/wr</text><path d="M 142,128 L 142,146 L 52,146" fill="none" stroke="#1a1a1a" stroke-width="1.4" stroke-linejoin="round"/><circle cx="52" cy="146" r="3.0" fill="#1a1a1a"/><path d="M 52,146 L 52,290" fill="none" stroke="#1a1a1a" stroke-width="1.4" stroke-linejoin="round"/><path d="M 52,182 L 60,182" fill="none" stroke="#1a1a1a" stroke-width="1.4" stroke-linejoin="round" marker-end="url(#a)"/><circle cx="52" cy="182" r="3.0" fill="#1a1a1a"/><path d="M 52,290 L 215,290" fill="none" stroke="#1a1a1a" stroke-width="1.4" stroke-linejoin="round"/><path d="M 110,290 L 110,300" fill="none" stroke="#1a1a1a" stroke-width="1.4" stroke-linejoin="round" marker-end="url(#a)"/><circle cx="110" cy="290" r="3.0" fill="#1a1a1a"/><path d="M 165,290 L 165,300" fill="none" stroke="#1a1a1a" stroke-width="1.4" stroke-linejoin="round" marker-end="url(#a)"/><circle cx="165" cy="290" r="3.0" fill="#1a1a1a"/><path d="M 215,290 L 215,300" fill="none" stroke="#1a1a1a" stroke-width="1.4" stroke-linejoin="round" marker-end="url(#a)"/><text x="70" y="284" font-size="8.5" text-anchor="start" font-style='italic' fill="#1a1a1a">rs1</text><text x="150" y="284" font-size="8.5" text-anchor="start" font-style='italic' fill="#1a1a1a">rs2/rd</text><text x="196" y="284" font-size="8.5" text-anchor="start" font-style='italic' fill="#1a1a1a">rd/ra</text><path d="M 142,84 L 142,58" fill="none" stroke="#1a1a1a" stroke-width="1.4" stroke-linejoin="round" marker-end="url(#a)"/><text x="150" y="55" font-size="9.5" text-anchor="start" font-style='italic' fill="#1a1a1a">Opcode → ControlUnit</text><path d="M 225,116 L 300,116" fill="none" stroke="#1a1a1a" stroke-width="1.4" stroke-linejoin="round" marker-end="url(#a)"/><text x="304" y="113" font-size="9.5" text-anchor="start" font-style='italic' fill="#1a1a1a">IR fields → CU (rs1, rs2, rd, off16, addr24)</text><path d="M 520,150 L 560,150" fill="none" stroke="#1a1a1a" stroke-width="1.4" stroke-linejoin="round" marker-end="url(#a)"/><text x="516" y="153" font-size="9.5" text-anchor="end" font-style='italic' fill="#1a1a1a">PC (from CU)</text><path d="M 520,200 L 560,200" fill="none" stroke="#1a1a1a" stroke-width="1.4" stroke-linejoin="round" marker-end="url(#a)"/><text x="516" y="203" font-size="9.5" text-anchor="end" font-style='italic' fill="#1a1a1a">vec (from CU)</text><path d="M 648,520 L 648,500 L 545,500 L 545,250 L 560,250" fill="none" stroke="#1a1a1a" stroke-width="1.4" stroke-linejoin="round" marker-end="url(#a)"/><text x="550" y="395" font-size="9" text-anchor="start" font-style='italic' fill="#1a1a1a">ALU_OUT</text><path d="M 640,200 L 770,200 L 770,400 L 800,400" fill="none" stroke="#1a1a1a" stroke-width="2.4" stroke-linejoin="round" marker-end="url(#a)"/><rect x="671.2" y="192.0" width="69.60000000000001" height="16" fill="#ffffff"/><text x="706" y="203.4" font-size="10" text-anchor="middle" font-weight='bold' fill="#1a1a1a">Address Bus</text><path d="M 270,358 L 305,358 L 305,440 L 400,440 L 400,452" fill="none" stroke="#1a1a1a" stroke-width="1.4" stroke-linejoin="round" marker-end="url(#a)"/><path d="M 432,406 L 432,440 L 464,440 L 464,452" fill="none" stroke="#1a1a1a" stroke-width="1.4" stroke-linejoin="round" marker-end="url(#a)"/><circle cx="305" cy="415" r="3.0" fill="#1a1a1a"/><path d="M 305,415 L 332,415" fill="none" stroke="#1a1a1a" stroke-width="1.4" stroke-linejoin="round" marker-end="url(#a)"/><text x="336" y="418" font-size="9" text-anchor="start" font-style='italic' fill="#1a1a1a">rs1 → CU</text><circle cx="336" cy="560" r="3.0" fill="#1a1a1a"/><path d="M 336,560 L 363,560" fill="none" stroke="#1a1a1a" stroke-width="1.4" stroke-linejoin="round" marker-end="url(#a)"/><text x="367" y="563" font-size="9" text-anchor="start" font-style='italic' fill="#1a1a1a">rs2 → CU</text><path d="M 270,470 L 336,470" fill="none" stroke="#1a1a1a" stroke-width="1.4" stroke-linejoin="round"/><circle cx="336" cy="470" r="3.0" fill="#1a1a1a"/><path d="M 336,470 L 336,344 L 408,344 L 408,360" fill="none" stroke="#1a1a1a" stroke-width="1.4" stroke-linejoin="round" marker-end="url(#a)"/><text x="276" y="354" font-size="8.5" text-anchor="start" font-style='italic' fill="#1a1a1a">outA</text><text x="276" y="466" font-size="8.5" text-anchor="start" font-style='italic' fill="#1a1a1a">outB</text><path d="M 336,470 L 336,650 L 920,650" fill="none" stroke="#1a1a1a" stroke-width="2.4" stroke-linejoin="round"/><rect x="511.2" y="642.0" width="97.60000000000001" height="16" fill="#ffffff"/><text x="560" y="653.4" font-size="10" text-anchor="middle" font-weight='bold' fill="#1a1a1a">Data Bus (Write)</text><circle cx="792" cy="650" r="3.0" fill="#1a1a1a"/><path d="M 792,650 L 792,512 L 800,512" fill="none" stroke="#1a1a1a" stroke-width="2.4" stroke-linejoin="round" marker-end="url(#a)"/><path d="M 920,650 L 912,650" fill="none" stroke="#1a1a1a" stroke-width="1.4" stroke-linejoin="round" marker-end="url(#a)"/><path d="M 242,182 L 286,182 L 286,330 L 452,330 L 452,360" fill="none" stroke="#1a1a1a" stroke-width="1.4" stroke-linejoin="round" marker-end="url(#a)"/><circle cx="286" cy="330" r="3.0" fill="#1a1a1a"/><rect x="394.8" y="322.0" width="58.400000000000006" height="16" fill="#ffffff"/><text x="424" y="333.4" font-size="10" text-anchor="middle" font-weight='bold' fill="#1a1a1a">imm / off</text><path d="M 286,330 L 286,684 L 355,684 L 355,704" fill="none" stroke="#1a1a1a" stroke-width="1.4" stroke-linejoin="round" marker-end="url(#a)"/><path d="M 432,534 L 432,540 L 592,540" fill="none" stroke="#1a1a1a" stroke-width="1.4" stroke-linejoin="round" marker-end="url(#a)"/><circle cx="470" cy="540" r="3.0" fill="#1a1a1a"/><path d="M 470,540 L 470,672 L 440,672 L 440,704" fill="none" stroke="#1a1a1a" stroke-width="1.4" stroke-linejoin="round" marker-end="url(#a)"/><path d="M 800,470 L 800,610 L 28,610 L 28,108 L 60,108" fill="none" stroke="#1a1a1a" stroke-width="2.4" stroke-linejoin="round" marker-end="url(#a)"/><rect x="510.0" y="602.0" width="92.00000000000001" height="16" fill="#ffffff"/><text x="556" y="613.4" font-size="10" text-anchor="middle" font-weight='bold' fill="#1a1a1a">Data Bus (Read)</text><circle cx="395" cy="610" r="3.0" fill="#1a1a1a"/><path d="M 395,610 L 395,704" fill="none" stroke="#1a1a1a" stroke-width="1.4" stroke-linejoin="round" marker-end="url(#a)"/><path d="M 912,694 L 520,694 L 520,704" fill="none" stroke="#1a1a1a" stroke-width="1.4" stroke-linejoin="round" marker-end="url(#a)"/><path d="M 1000,732 L 1000,758" fill="none" stroke="#1a1a1a" stroke-width="1.4" stroke-linejoin="round" marker-end="url(#a)"/><text x="1000" y="770" font-size="9.5" text-anchor="middle" font-style='italic' fill="#1a1a1a">irq → CU</text><path d="M 965,604 L 965,628" fill="none" stroke="#1a1a1a" stroke-width="1.4" stroke-linejoin="round" marker-end="url(#a)"/><text x="965" y="598" font-size="9" text-anchor="middle" font-style='italic' fill="#1a1a1a">port# (IR)</text><path d="M 480,690 L 480,704" fill="none" stroke="#1a1a1a" stroke-width="1.4" stroke-linejoin="round" marker-end="url(#a)"/><text x="480" y="684" font-size="9" text-anchor="middle" font-style='italic' fill="#1a1a1a">pc (JAL)</text><path d="M 432,752 L 432,792 L 40,792 L 40,500 L 60,500" fill="none" stroke="#1a1a1a" stroke-width="2.4" stroke-linejoin="round" marker-end="url(#a)"/><rect x="209.6" y="784.0" width="80.80000000000001" height="16" fill="#ffffff"/><text x="250" y="795.4" font-size="10" text-anchor="middle" font-weight='bold' fill="#1a1a1a">Writeback Bus</text><text x="64" y="494" font-size="8.5" text-anchor="start" font-style='italic' fill="#1a1a1a">wdata</text><path d="M 1010,410 L 1180,410" fill="none" stroke="#1a1a1a" stroke-width="2.4" stroke-linejoin="round" marker-end="url(#a)"/><text x="1056" y="404" font-size="8.5" text-anchor="middle"  fill="#1a1a1a">addr · wb · we</text><path d="M 1180,462 L 1010,462" fill="none" stroke="#1a1a1a" stroke-width="2.4" stroke-linejoin="round" marker-end="url(#a)"/><text x="1056" y="476" font-size="8.5" text-anchor="middle"  fill="#1a1a1a">fill data</text><path d="M 970,360 L 970,335" fill="none" stroke="#1a1a1a" stroke-width="1.4" stroke-linejoin="round" marker-end="url(#a)"/><text x="970" y="330" font-size="9.5" text-anchor="middle" font-style='italic' fill="#1a1a1a">stall → CU</text><circle cx="286" cy="358" r="4.2" fill="#ffffff" stroke="#1a1a1a" stroke-width="1.1"/><circle cx="286" cy="470" r="4.2" fill="#ffffff" stroke="#1a1a1a" stroke-width="1.1"/><circle cx="286" cy="610" r="4.2" fill="#ffffff" stroke="#1a1a1a" stroke-width="1.1"/><circle cx="336" cy="610" r="4.2" fill="#ffffff" stroke="#1a1a1a" stroke-width="1.1"/><circle cx="470" cy="610" r="4.2" fill="#ffffff" stroke="#1a1a1a" stroke-width="1.1"/><circle cx="395" cy="650" r="4.2" fill="#ffffff" stroke="#1a1a1a" stroke-width="1.1"/><circle cx="470" cy="650" r="4.2" fill="#ffffff" stroke="#1a1a1a" stroke-width="1.1"/><circle cx="40" cy="610" r="4.2" fill="#ffffff" stroke="#1a1a1a" stroke-width="1.1"/></svg>